<?xml version="1.0" encoding="UTF-8"?>
<svg id="Layer_1" data-name="Layer 1" xmlns="http://www.w3.org/2000/svg" viewBox="0 0 487.88 422.51">
  <defs>
    <style>
      .cls-1 {
        fill: #fff;
      }

      .cls-2 {
        fill: none;
        stroke: #fff;
        stroke-miterlimit: 10;
        stroke-width: 12px;
      }
    </style>
  </defs>
  <polygon class="cls-2" points="362.44 6 125.43 6 6.93 211.26 125.43 416.51 362.44 416.51 480.95 211.26 362.44 6"/>
  <g>
    <path class="cls-1" d="M181.61,162.59h32.04c3.91,0,7.61,1.65,11.11,4.94s5.24,7.29,5.24,11.97c0,1.76-.62,3.25-1.87,4.47-1.24,1.22-2.62,1.83-4.14,1.83-2.1,0-3.54-.48-4.32-1.43s-1.53-2.72-2.24-5.31c-.71-2.59-2.29-3.88-4.73-3.88h-30.45c-1.47,0-2.2,.47-2.2,1.42-.04,.6,.26,1.29,.9,2.07l45.75,58.33c2.2,2.83,3.3,5.86,3.3,9.08,0,3.66-1.33,6.88-3.99,9.67-2.66,2.78-5.63,4.17-8.9,4.17h-33.18c-4.39,0-8.22-1.67-11.46-5.02-3.25-3.34-4.87-7.02-4.87-11.02,0-4.59,2.15-6.88,6.45-6.88,1.66,0,3.08,.6,4.25,1.79,1.17,1.2,1.76,2.6,1.76,4.21,0,1.32,.45,2.42,1.35,3.3,.9,.88,2.04,1.32,3.41,1.32h30.61c1.32,0,1.98-.52,1.98-1.57,.04-.5-.26-1.14-.9-1.92l-45.67-58.33c-2.15-2.78-3.23-5.81-3.23-9.08,0-3.81,1.37-7.12,4.11-9.92,2.74-2.81,6.04-4.21,9.9-4.21Z"/>
    <path class="cls-1" d="M314.16,175.04h-43.51v29.96h18.75c1.66,0,3.1,.61,4.32,1.83,1.22,1.22,1.83,2.66,1.83,4.32,0,1.76-.6,3.25-1.79,4.47-1.2,1.22-2.65,1.83-4.36,1.83h-18.75v30.18h43.65c1.66,0,3.1,.6,4.32,1.79,1.22,1.2,1.83,2.65,1.83,4.36s-.62,3.16-1.87,4.36c-1.24,1.2-2.72,1.79-4.43,1.79h-55.81v-97.34h55.81c1.71,0,3.19,.62,4.43,1.87,1.25,1.25,1.87,2.72,1.87,4.43s-.62,3.1-1.87,4.32c-1.24,1.22-2.72,1.83-4.43,1.83Z"/>
  </g>
</svg>